<svg width="30" height="30" viewBox="0 0 30 30" fill="none" xmlns="http://www.w3.org/2000/svg">
<rect width="29.4907" height="29.4907" transform="translate(0.453735 0.453613)" fill="#EB7100"/>
<path fill-rule="evenodd" clip-rule="evenodd" d="M5.36884 6.59745C4.69582 6.59745 4.14006 7.15321 4.14006 7.82623V22.5716C4.14006 23.2446 4.69582 23.8004 5.36884 23.8004H25.0293C25.7024 23.8004 26.2581 23.2446 26.2581 22.5716V7.82623C26.2581 7.15321 25.7024 6.59745 25.0293 6.59745H5.36884ZM1.6825 7.82623C1.6825 5.79594 3.33854 4.13989 5.36884 4.13989H25.0293C27.0596 4.13989 28.7157 5.79594 28.7157 7.82623V22.5716C28.7157 24.6019 27.0596 26.2579 25.0293 26.2579H5.36884C3.33854 26.2579 1.6825 24.6019 1.6825 22.5716V7.82623Z" fill="white"/>
<path fill-rule="evenodd" clip-rule="evenodd" d="M1.90472 7.12164C2.2939 6.56568 3.06008 6.43047 3.61604 6.81964L15.1992 14.9278L26.7823 6.81964C27.3383 6.43047 28.1045 6.56568 28.4936 7.12164C28.8828 7.6776 28.7476 8.44378 28.1917 8.83295L15.9038 17.4344C15.4808 17.7306 14.9176 17.7306 14.4945 17.4344L2.20672 8.83295C1.65076 8.44378 1.51555 7.6776 1.90472 7.12164Z" fill="white"/>
</svg>
