<svg width="30" height="30" viewBox="0 0 30 30" fill="none" xmlns="http://www.w3.org/2000/svg">
<g clip-path="url(#clip0)">
<rect width="29.4907" height="29.4907" transform="translate(0.453674 0.453613)" fill="#EB7100"/>
<path fill-rule="evenodd" clip-rule="evenodd" d="M15.199 2.91118C12.5919 2.91118 10.0915 3.94686 8.24797 5.79039C6.40444 7.63392 5.36876 10.1343 5.36876 12.7414C5.36876 16.5483 7.84566 20.2422 10.5615 23.109C11.8943 24.5158 13.2313 25.6675 14.2365 26.4679C14.6106 26.7658 14.9373 27.014 15.199 27.2073C15.4607 27.014 15.7874 26.7658 16.1615 26.4679C17.1667 25.6675 18.5037 24.5158 19.8365 23.109C22.5524 20.2422 25.0293 16.5483 25.0293 12.7414C25.0293 10.1343 23.9936 7.63392 22.15 5.79039C20.3065 3.94686 17.8061 2.91118 15.199 2.91118ZM15.199 28.7156C14.5174 29.738 14.5171 29.7378 14.5167 29.7375L14.5132 29.7352L14.505 29.7297L14.4769 29.7106C14.4529 29.6944 14.4188 29.6711 14.3752 29.6408C14.2879 29.5804 14.1625 29.4923 14.0044 29.3781C13.6883 29.1498 13.2408 28.8166 12.7056 28.3904C11.6372 27.5397 10.2094 26.3106 8.77745 24.7991C5.96381 21.8292 2.91119 17.5361 2.91119 12.7414C2.91119 9.48249 4.2058 6.35704 6.51021 4.05263C8.81462 1.74822 11.9401 0.453613 15.199 0.453613C18.4579 0.453613 21.5834 1.74822 23.8878 4.05263C26.1922 6.35704 27.4868 9.48249 27.4868 12.7414C27.4868 17.5361 24.4342 21.8292 21.6206 24.7991C20.1886 26.3106 18.7608 27.5397 17.6924 28.3904C17.1572 28.8166 16.7097 29.1498 16.3936 29.3781C16.2355 29.4923 16.1101 29.5804 16.0228 29.6408C15.9792 29.6711 15.9451 29.6944 15.9211 29.7106L15.893 29.7297L15.8848 29.7352L15.8822 29.7369C15.8818 29.7372 15.8806 29.738 15.199 28.7156ZM15.199 28.7156L15.8806 29.738C15.4679 30.0131 14.9295 30.0127 14.5167 29.7375L15.199 28.7156Z" fill="white"/>
<path fill-rule="evenodd" clip-rule="evenodd" d="M15.199 10.284C13.8417 10.284 12.7414 11.3843 12.7414 12.7415C12.7414 14.0988 13.8417 15.1991 15.199 15.1991C16.5563 15.1991 17.6566 14.0988 17.6566 12.7415C17.6566 11.3843 16.5563 10.284 15.199 10.284ZM10.2839 12.7415C10.2839 10.027 12.4845 7.82642 15.199 7.82642C17.9135 7.82642 20.1141 10.027 20.1141 12.7415C20.1141 15.4561 17.9135 17.6567 15.199 17.6567C12.4845 17.6567 10.2839 15.4561 10.2839 12.7415Z" fill="white"/>
</g>
<defs>
<clipPath id="clip0">
<rect width="29.4907" height="29.4907" fill="white" transform="translate(0.453674 0.453613)"/>
</clipPath>
</defs>
</svg>
