<svg width="30" height="31" viewBox="0 0 30 31" fill="none" xmlns="http://www.w3.org/2000/svg">
<g clip-path="url(#clip0)">
<rect width="29.4907" height="29.4907" transform="translate(0.453735 0.861084)" fill="#EB7100"/>
<path d="M25.0294 29.0002C24.9065 29.0002 24.7836 29.0002 24.6607 29.0002C20.7286 28.5087 16.7965 27.1571 13.4788 25.0681C10.4069 23.1021 7.70357 20.3988 5.73752 17.3268C3.52571 14.0091 2.17405 10.077 1.80542 6.14492C1.80542 5.16189 2.05118 4.17887 2.66557 3.4416C3.27996 2.70433 4.1401 2.21282 5.12313 2.08994C5.24601 2.08994 5.36888 2.08994 5.49176 2.08994H9.17811C11.0213 2.08994 12.6187 3.4416 12.8644 5.28477C12.9873 6.39067 13.2331 7.49658 13.6017 8.4796C14.0932 9.83126 13.7246 11.3058 12.7416 12.4117L11.8814 13.2718C13.356 15.4837 15.1991 17.4497 17.5338 18.9242L18.394 18.0641C19.377 17.0811 20.9744 16.7124 22.3261 17.2039C23.3091 17.5726 24.415 17.8183 25.5209 17.9412C27.3641 18.187 28.7157 19.7844 28.7157 21.6276V25.3139C28.7157 26.2969 28.3471 27.2799 27.6098 27.8943C26.8726 28.5087 26.0124 29.0002 25.0294 29.0002ZM9.17811 4.5475H5.49176C5.12313 4.5475 4.75449 4.79326 4.50874 5.03901C4.38586 5.28477 4.26298 5.53053 4.26298 5.89916C4.63162 9.46263 5.8604 12.9032 7.82645 15.9752C9.66962 18.8014 12.0043 21.2589 14.8305 22.9792C17.9025 24.9453 21.343 26.174 24.9065 26.5427C25.398 26.5427 25.6438 26.4198 25.8895 26.174C26.1353 25.9283 26.2582 25.6825 26.2582 25.3139V21.6276C26.2582 21.0132 25.7666 20.5217 25.1523 20.3988C23.9235 20.2759 22.6947 19.9073 21.4659 19.4158C20.9744 19.2929 20.4829 19.2929 20.1143 19.6615L18.5168 21.2589C18.1482 21.6276 17.5338 21.7504 17.0423 21.5047C13.7246 19.6615 11.0213 16.9582 9.17811 13.6405C9.05523 13.149 9.17811 12.5346 9.54674 12.1659L11.1442 10.5685C11.3899 10.3228 11.5128 9.70838 11.3899 9.33975C10.8984 8.11097 10.6526 6.88219 10.4069 5.6534C10.4069 5.03901 9.7925 4.5475 9.17811 4.5475ZM23.8006 13.149C23.1862 13.149 22.6947 12.7803 22.5718 12.1659C22.2032 10.1999 20.6058 8.72536 18.6397 8.23384C18.0253 8.11097 17.5338 7.49658 17.6567 6.75931C17.7796 6.14492 18.394 5.6534 19.1312 5.77628C22.0803 6.39067 24.415 8.60248 24.9065 11.5516C25.0294 12.1659 24.6607 12.9032 23.9235 13.0261C23.9235 13.0261 23.9235 13.149 23.8006 13.149ZM28.7157 13.0261C28.1013 13.0261 27.6098 12.5346 27.4869 11.9202C26.9954 7.3737 23.432 3.81023 18.7626 3.19584C18.1482 3.07296 17.6567 2.45857 17.6567 1.84418C17.6567 1.22979 18.394 0.738281 19.0084 0.738281C24.7836 1.35267 29.2072 5.77628 29.8216 11.5516C29.9445 12.1659 29.453 12.7803 28.7157 12.9032C28.8386 13.0261 28.7157 13.0261 28.7157 13.0261Z" fill="white"/>
</g>
<defs>
<clipPath id="clip0">
<rect width="29.4907" height="29.4907" fill="white" transform="translate(0.453735 0.861084)"/>
</clipPath>
</defs>
</svg>
